<mxfile host="Electron" modified="2024-01-20T18:59:09.951Z" agent="Mozilla/5.0 (Windows NT 10.0; Win64; x64) AppleWebKit/537.36 (KHTML, like Gecko) draw.io/22.1.21 Chrome/120.0.6099.109 Electron/28.1.0 Safari/537.36" etag="BwimCJUPVfeQvr6lqJkH" version="22.1.21" type="device">
  <diagram name="Page-1" id="eNjAPuTT2rj52Y_1yLW7">
    <mxGraphModel dx="268" dy="165" grid="1" gridSize="10" guides="1" tooltips="1" connect="1" arrows="1" fold="1" page="1" pageScale="1" pageWidth="850" pageHeight="1100" math="1" shadow="0">
      <root>
        <mxCell id="0" />
        <mxCell id="1" parent="0" />
        <mxCell id="zQ_56bilAVkL82VbGDRf-1" value="" style="endArrow=classic;html=1;rounded=0;" edge="1" parent="1">
          <mxGeometry width="50" height="50" relative="1" as="geometry">
            <mxPoint x="320" y="360" as="sourcePoint" />
            <mxPoint x="320" y="160" as="targetPoint" />
          </mxGeometry>
        </mxCell>
        <mxCell id="zQ_56bilAVkL82VbGDRf-2" value="" style="endArrow=classic;html=1;rounded=0;" edge="1" parent="1">
          <mxGeometry width="50" height="50" relative="1" as="geometry">
            <mxPoint x="280" y="320" as="sourcePoint" />
            <mxPoint x="480" y="320" as="targetPoint" />
          </mxGeometry>
        </mxCell>
        <mxCell id="zQ_56bilAVkL82VbGDRf-3" value="" style="endArrow=none;html=1;rounded=0;" edge="1" parent="1">
          <mxGeometry width="50" height="50" relative="1" as="geometry">
            <mxPoint x="360" y="330" as="sourcePoint" />
            <mxPoint x="360" y="320" as="targetPoint" />
          </mxGeometry>
        </mxCell>
        <mxCell id="zQ_56bilAVkL82VbGDRf-4" value="$$x_{0}$$" style="text;html=1;strokeColor=none;fillColor=none;align=center;verticalAlign=middle;whiteSpace=wrap;rounded=0;" vertex="1" parent="1">
          <mxGeometry x="350" y="330" width="20" height="20" as="geometry" />
        </mxCell>
        <mxCell id="zQ_56bilAVkL82VbGDRf-5" value="" style="endArrow=none;html=1;rounded=0;" edge="1" parent="1">
          <mxGeometry width="50" height="50" relative="1" as="geometry">
            <mxPoint x="400" y="330" as="sourcePoint" />
            <mxPoint x="400" y="320" as="targetPoint" />
          </mxGeometry>
        </mxCell>
        <mxCell id="zQ_56bilAVkL82VbGDRf-6" value="$$x$$" style="text;html=1;strokeColor=none;fillColor=none;align=center;verticalAlign=middle;whiteSpace=wrap;rounded=0;" vertex="1" parent="1">
          <mxGeometry x="390" y="330" width="20" height="20" as="geometry" />
        </mxCell>
        <mxCell id="zQ_56bilAVkL82VbGDRf-7" value="" style="endArrow=none;html=1;rounded=0;" edge="1" parent="1">
          <mxGeometry width="50" height="50" relative="1" as="geometry">
            <mxPoint x="310" y="280" as="sourcePoint" />
            <mxPoint x="320" y="280" as="targetPoint" />
          </mxGeometry>
        </mxCell>
        <mxCell id="zQ_56bilAVkL82VbGDRf-8" value="$$y_{0}$$" style="text;html=1;strokeColor=none;fillColor=none;align=center;verticalAlign=middle;whiteSpace=wrap;rounded=0;" vertex="1" parent="1">
          <mxGeometry x="290" y="270" width="20" height="20" as="geometry" />
        </mxCell>
        <mxCell id="zQ_56bilAVkL82VbGDRf-9" value="$$y$$" style="text;html=1;strokeColor=none;fillColor=none;align=center;verticalAlign=middle;whiteSpace=wrap;rounded=0;" vertex="1" parent="1">
          <mxGeometry x="290" y="230" width="20" height="20" as="geometry" />
        </mxCell>
        <mxCell id="zQ_56bilAVkL82VbGDRf-10" value="" style="endArrow=none;html=1;rounded=0;" edge="1" parent="1">
          <mxGeometry width="50" height="50" relative="1" as="geometry">
            <mxPoint x="310" y="240" as="sourcePoint" />
            <mxPoint x="320" y="239.83" as="targetPoint" />
          </mxGeometry>
        </mxCell>
        <mxCell id="zQ_56bilAVkL82VbGDRf-11" value="" style="endArrow=none;dashed=1;html=1;rounded=0;" edge="1" parent="1" source="zQ_56bilAVkL82VbGDRf-13">
          <mxGeometry width="50" height="50" relative="1" as="geometry">
            <mxPoint x="360" y="320" as="sourcePoint" />
            <mxPoint x="360" y="280" as="targetPoint" />
          </mxGeometry>
        </mxCell>
        <mxCell id="zQ_56bilAVkL82VbGDRf-12" value="" style="endArrow=none;dashed=1;html=1;rounded=0;" edge="1" parent="1" source="zQ_56bilAVkL82VbGDRf-13">
          <mxGeometry width="50" height="50" relative="1" as="geometry">
            <mxPoint x="320" y="280" as="sourcePoint" />
            <mxPoint x="360" y="280" as="targetPoint" />
          </mxGeometry>
        </mxCell>
        <mxCell id="zQ_56bilAVkL82VbGDRf-14" value="" style="endArrow=none;dashed=1;html=1;rounded=0;" edge="1" parent="1" target="zQ_56bilAVkL82VbGDRf-13">
          <mxGeometry width="50" height="50" relative="1" as="geometry">
            <mxPoint x="360" y="320" as="sourcePoint" />
            <mxPoint x="360" y="280" as="targetPoint" />
          </mxGeometry>
        </mxCell>
        <mxCell id="zQ_56bilAVkL82VbGDRf-15" value="" style="endArrow=none;dashed=1;html=1;rounded=0;" edge="1" parent="1" target="zQ_56bilAVkL82VbGDRf-13">
          <mxGeometry width="50" height="50" relative="1" as="geometry">
            <mxPoint x="320" y="280" as="sourcePoint" />
            <mxPoint x="360" y="280" as="targetPoint" />
          </mxGeometry>
        </mxCell>
        <mxCell id="zQ_56bilAVkL82VbGDRf-13" value="" style="shape=ellipse;html=1;sketch=0;" vertex="1" parent="1">
          <mxGeometry x="357.5" y="277.5" width="5" height="5" as="geometry" />
        </mxCell>
        <mxCell id="zQ_56bilAVkL82VbGDRf-16" value="" style="endArrow=none;dashed=1;html=1;rounded=0;" edge="1" parent="1">
          <mxGeometry width="50" height="50" relative="1" as="geometry">
            <mxPoint x="360" y="280" as="sourcePoint" />
            <mxPoint x="420" y="280" as="targetPoint" />
          </mxGeometry>
        </mxCell>
        <mxCell id="zQ_56bilAVkL82VbGDRf-17" value="" style="endArrow=none;html=1;rounded=0;" edge="1" parent="1">
          <mxGeometry width="50" height="50" relative="1" as="geometry">
            <mxPoint x="360" y="280" as="sourcePoint" />
            <mxPoint x="400" y="240" as="targetPoint" />
          </mxGeometry>
        </mxCell>
        <mxCell id="zQ_56bilAVkL82VbGDRf-18" value="$$\overline{x}$$" style="text;html=1;strokeColor=none;fillColor=none;align=center;verticalAlign=middle;whiteSpace=wrap;rounded=0;" vertex="1" parent="1">
          <mxGeometry x="460" y="330" width="20" height="20" as="geometry" />
        </mxCell>
        <mxCell id="zQ_56bilAVkL82VbGDRf-19" value="$$\overline{y}$$" style="text;html=1;strokeColor=none;fillColor=none;align=center;verticalAlign=middle;whiteSpace=wrap;rounded=0;" vertex="1" parent="1">
          <mxGeometry x="290" y="160" width="20" height="20" as="geometry" />
        </mxCell>
        <mxCell id="zQ_56bilAVkL82VbGDRf-20" value="" style="shape=ellipse;html=1;sketch=0;" vertex="1" parent="1">
          <mxGeometry x="397.5" y="237.5" width="5" height="5" as="geometry" />
        </mxCell>
        <mxCell id="zQ_56bilAVkL82VbGDRf-23" value="$$\rho$$" style="text;html=1;strokeColor=none;fillColor=none;align=center;verticalAlign=middle;whiteSpace=wrap;rounded=0;" vertex="1" parent="1">
          <mxGeometry x="362.5" y="237.5" width="20" height="20" as="geometry" />
        </mxCell>
        <mxCell id="zQ_56bilAVkL82VbGDRf-24" value="$$P$$" style="text;html=1;strokeColor=none;fillColor=none;align=center;verticalAlign=middle;whiteSpace=wrap;rounded=0;" vertex="1" parent="1">
          <mxGeometry x="402.5" y="217.5" width="20" height="20" as="geometry" />
        </mxCell>
        <mxCell id="zQ_56bilAVkL82VbGDRf-25" value="$$P_{0}$$" style="text;html=1;strokeColor=none;fillColor=none;align=center;verticalAlign=middle;whiteSpace=wrap;rounded=0;" vertex="1" parent="1">
          <mxGeometry x="362.5" y="282.5" width="20" height="20" as="geometry" />
        </mxCell>
        <mxCell id="zQ_56bilAVkL82VbGDRf-26" value="" style="endArrow=classic;html=1;rounded=0;" edge="1" parent="1">
          <mxGeometry width="50" height="50" relative="1" as="geometry">
            <mxPoint x="390" y="277.5" as="sourcePoint" />
            <mxPoint x="390" y="257.5" as="targetPoint" />
          </mxGeometry>
        </mxCell>
        <mxCell id="zQ_56bilAVkL82VbGDRf-27" value="$$\theta$$" style="text;html=1;strokeColor=none;fillColor=none;align=center;verticalAlign=middle;whiteSpace=wrap;rounded=0;" vertex="1" parent="1">
          <mxGeometry x="397.5" y="250" width="20" height="20" as="geometry" />
        </mxCell>
      </root>
    </mxGraphModel>
  </diagram>
</mxfile>
